<svg width="70" height="70" viewBox="0 0 70 70" fill="none" xmlns="http://www.w3.org/2000/svg">
<path fill-rule="evenodd" clip-rule="evenodd" d="M41.882 12.0112C57.411 12.0112 70 24.6002 70 40.1292C70 55.6582 57.411 68.2472 41.882 68.2472C26.353 68.2472 13.764 55.6582 13.764 40.1292C13.764 24.6002 26.353 12.0112 41.882 12.0112ZM42.0134 18.3181C29.8948 18.3181 20.0709 28.142 20.0709 40.2606C20.0709 52.3792 29.8948 62.2031 42.0134 62.2031C54.132 62.2031 63.9559 52.3792 63.9559 40.2606C63.9559 28.142 54.132 18.3181 42.0134 18.3181Z" fill="#FEE044"/>
<path d="M29.8341 32.663V33.6728C30.317 33.7833 30.78 33.9702 31.2063 34.2265C31.7042 34.5559 32.1284 34.9889 32.451 35.497C32.73 35.9581 32.8842 36.4863 32.8977 37.0281C32.9005 37.2653 32.8215 37.4959 32.6744 37.6796C32.4768 37.9403 32.1671 38.0861 31.8446 38.0705H31.1106C30.9318 38.1091 30.747 38.1091 30.5681 38.0705C30.3232 37.9428 30.1391 37.7196 30.0575 37.4516C30.0009 37.2076 29.8516 36.9968 29.6426 36.8652C29.2979 36.65 28.8971 36.5478 28.4938 36.572C28.0703 36.5485 27.6492 36.6503 27.2811 36.8652C27.0886 36.9777 26.9769 37.1933 26.9939 37.4189C26.95 37.5565 26.95 37.7048 26.9939 37.8425C27.1785 38.0155 27.3957 38.1485 27.6321 38.2334L29.164 38.7546C29.8839 38.9485 30.5881 39.199 31.2702 39.5037C31.8355 39.77 32.3205 40.1863 32.6744 40.7091C33.0069 41.2556 33.1735 41.8903 33.153 42.5333C33.1695 43.2111 32.9921 43.8789 32.6425 44.4552C32.2793 45.0187 31.7715 45.4694 31.1744 45.7582C30.7264 45.9683 30.2548 46.1215 29.7703 46.2143V46.6378C29.7858 46.9343 29.6683 47.222 29.4512 47.4196C29.258 47.6225 28.9942 47.7396 28.7171 47.7453H28.2385C27.9418 47.7429 27.6571 47.6266 27.4406 47.4196C27.2542 47.2038 27.152 46.9255 27.1534 46.6378V45.9212C26.6404 45.8269 26.145 45.6511 25.6854 45.4C25.1188 45.1207 24.6343 44.6937 24.2813 44.162C23.9606 43.6786 23.7733 43.116 23.7387 42.5333C23.7489 42.2419 23.8623 41.9641 24.0578 41.7515C24.2542 41.5575 24.5186 41.4519 24.7918 41.4583H25.5897C25.8727 41.4503 26.1475 41.5555 26.3556 41.7515C26.5036 41.9076 26.613 42.0974 26.6747 42.3053C26.7231 42.4692 26.7987 42.6234 26.8981 42.7613C27.0686 42.9213 27.2624 43.0531 27.4726 43.1522C27.8187 43.2851 28.1887 43.3407 28.5576 43.3151C29.0686 43.3726 29.584 43.2582 30.0256 42.9893C30.2402 42.8477 30.3625 42.5981 30.3447 42.3379V41.9795C30.1295 41.7908 29.8802 41.6469 29.6107 41.556C29.04 41.3006 28.4536 41.0831 27.8555 40.9045C27.1704 40.7173 26.507 40.4552 25.8769 40.1228C25.3268 39.8594 24.8619 39.4413 24.5365 38.9175C24.204 38.371 24.0375 37.7362 24.0578 37.0932C24.0417 36.1514 24.4258 35.2485 25.111 34.6174C25.6983 34.0863 26.4148 33.7262 27.1854 33.5751V32.5978L29.8341 32.663Z" fill="#FEE044"/>
<path fill-rule="evenodd" clip-rule="evenodd" d="M15.4533 48.5843C14.0034 48.5843 11.8286 48.5843 8.92875 48.5843C3.9975 48.5843 0 52.5458 0 57.4326C0 62.3194 3.9975 66.2809 8.92875 66.2809C19.1871 66.2809 26.8442 66.2809 31.9 66.2809M8.92875 54.4831C7.28497 54.4831 5.9525 55.8036 5.9525 57.4326C5.9525 59.0616 7.28497 60.382 8.92875 60.382H23.2407C24.8844 60.382 26.2169 59.0616 26.2169 57.4326C26.2169 55.8036 24.8844 54.4831 23.2407 54.4831H8.92875Z" fill="#FEE044"/>
<path fill-rule="evenodd" clip-rule="evenodd" d="M14.6106 36.7865C13.3479 36.7865 11.454 36.7865 8.92875 36.7865C3.9975 36.7865 0 40.748 0 45.6348C0 50.5217 3.9975 54.4831 8.92875 54.4831C13.094 54.4831 16.2179 54.4831 18.3006 54.4831M8.92875 42.6854C7.28497 42.6854 5.9525 44.0059 5.9525 45.6348C5.9525 47.2638 7.28497 48.5843 8.92875 48.5843H17.0946C18.7384 48.5843 20.0709 47.2638 20.0709 45.6348C20.0709 44.0059 18.7384 42.6854 17.0946 42.6854H8.92875Z" fill="#FEE044"/>
<path fill-rule="evenodd" clip-rule="evenodd" d="M19.545 24.9888C17.3606 24.9888 14.084 24.9888 9.71525 24.9888C4.784 24.9888 0.786499 28.9503 0.786499 33.8371C0.786499 38.7239 4.784 42.6854 9.71525 42.6854C11.9513 42.6854 13.6284 42.6854 14.7465 42.6854M9.71525 30.8876C8.07147 30.8876 6.739 32.2081 6.739 33.8371C6.739 35.4661 8.07147 36.7865 9.71525 36.7865H17.6211C19.2648 36.7865 20.5973 35.4661 20.5973 33.8371C20.5973 32.2081 19.2648 30.8876 17.6211 30.8876H9.71525Z" fill="#FEE044"/>
<path fill-rule="evenodd" clip-rule="evenodd" d="M37.4668 12.7978H9.71525C4.784 12.7978 0.786499 16.7592 0.786499 21.6461C0.786499 26.5329 4.784 30.4944 9.71525 30.4944C12.6535 30.4944 14.8572 30.4944 16.3263 30.4944M9.71525 18.6966C8.07147 18.6966 6.739 20.0171 6.739 21.6461C6.739 23.275 8.07147 24.5955 9.71525 24.5955H24.8915C26.5352 24.5955 27.8677 23.275 27.8677 21.6461C27.8677 20.0171 26.5352 18.6966 24.8915 18.6966H9.71525Z" fill="#FEE044"/>
<path fill-rule="evenodd" clip-rule="evenodd" d="M49.1132 18.3179C52.7801 17.217 55.4494 13.8416 55.4494 9.84831C55.4494 4.96149 51.4519 1 46.5207 1H20.7265C15.7952 1 11.7977 4.96149 11.7977 9.84831C11.7977 14.7351 15.7952 18.6966 20.7265 18.6966M20.7265 6.89888C19.0827 6.89888 17.7502 8.21934 17.7502 9.84831C17.7502 11.4773 19.0827 12.7978 20.7265 12.7978H46.5207C48.1644 12.7978 49.4969 11.4773 49.4969 9.84831C49.4969 8.21934 48.1644 6.89888 46.5207 6.89888H20.7265Z" fill="#FEE044"/>
<path d="M34.7923 46.252H37.9189V38.5361L40.8078 46.252H43.331L46.2016 38.5544V46.252H49.3281V33.4166H45.653L42.0876 42.3027L38.4857 33.4166H34.7923V46.252Z" fill="#FEE044"/>
<path d="M51.0652 35.9215H54.466V46.252H57.5926V35.9215H60.9934V33.4166H51.0652V35.9215Z" fill="#FEE044"/>
</svg>
