<svg width="70" height="70" viewBox="0 0 70 70" fill="none" xmlns="http://www.w3.org/2000/svg">
<path d="M68.6875 8.45834C70 9.33334 70.2917 11.2292 69.4167 12.5417C68.5417 13.8542 66.6458 14.1458 65.3333 13.2708C64.8958 12.9792 61.6875 11.0833 57.1667 14.2917L62.125 19.25C63.2917 20.4167 63.2917 22.1667 62.125 23.3333L55.7083 29.75C58.625 39.375 56 50.0208 48.7083 57.3125C43.3125 62.8542 36.3125 65.625 29.1667 65.625C22.0208 65.625 15.0208 62.8542 9.625 57.4583C-1.3125 46.6667 -1.3125 29.1667 9.625 18.375C16.9167 11.0833 27.5625 8.45834 37.1875 11.375L43.6042 4.95834C44.7708 3.79167 46.5208 3.79167 47.6875 4.95834L53.0833 10.2083C59.7917 4.95834 66.0625 6.70834 68.6875 8.45834ZM52.3542 25.0833L56 21.4375L45.6458 11.0833L42 14.7292L52.3542 25.0833ZM44.625 53.375C50.6042 47.3958 52.5 38.6458 49.875 30.7708L36.4583 17.3542C28.4375 14.5833 19.6875 16.4792 13.7083 22.4583C5.25 30.9167 5.25 44.9167 13.7083 53.375C22.1667 61.8333 36.0208 61.9792 44.625 53.375Z" fill="#FEE044"/>
<path d="M29.1667 20.4167C19.5417 20.4167 11.6667 28.2917 11.6667 37.9167C11.6667 39.5208 12.9792 40.8333 14.5833 40.8333C16.1875 40.8333 17.5 39.5208 17.5 37.9167C17.5 31.5 22.75 26.25 29.1667 26.25C30.7708 26.25 32.0833 24.9375 32.0833 23.3333C32.0833 21.7292 30.7708 20.4167 29.1667 20.4167Z" fill="#FEE044"/>
</svg>
