<svg width="70" height="70" viewBox="0 0 70 70" fill="none" xmlns="http://www.w3.org/2000/svg">
<path d="M25.158 12.958L29.6301 5.24743C29.8985 4.78478 30.3929 4.50001 30.9277 4.50001H39.9038C40.4386 4.50001 40.933 4.78478 41.2013 5.24743L45.6735 12.958C45.9434 13.4234 45.9434 13.9977 45.6735 14.4632L41.2013 22.1737C40.933 22.6364 40.4386 22.9211 39.9038 22.9211H30.9277C30.3929 22.9211 29.8985 22.6364 29.6301 22.1737L25.158 14.4632C24.8881 13.9977 24.8881 13.4234 25.158 12.958Z" stroke="#FEE044" stroke-width="5"/>
<path d="M43.1579 23.4573L47.63 15.7468C47.8984 15.2841 48.3927 14.9993 48.9276 14.9993H57.9037C58.4385 14.9993 58.9329 15.2841 59.2012 15.7468L63.6734 23.4573C63.9433 23.9227 63.9433 24.4971 63.6734 24.9625L59.2012 32.6731C58.9329 33.1357 58.4385 33.4205 57.9037 33.4205H48.9276C48.3927 33.4205 47.8984 33.1357 47.63 32.6731L43.1579 24.9625C42.8879 24.4971 42.8879 23.9227 43.1579 23.4573Z" stroke="#FEE044" stroke-width="5"/>
<path d="M24.9591 33.8698L29.4312 26.1593C29.6996 25.6966 30.1939 25.4119 30.7288 25.4119H39.7049C40.2397 25.4119 40.7341 25.6966 41.0024 26.1593L45.4746 33.8698C45.7445 34.3353 45.7445 34.9096 45.4746 35.375L41.0024 43.0856C40.7341 43.5482 40.2397 43.833 39.7049 43.833H30.7288C30.1939 43.833 29.6996 43.5482 29.4312 43.0856L24.9591 35.375C24.6891 34.9096 24.6891 34.3353 24.9591 33.8698Z" stroke="#FEE044" stroke-width="5"/>
<path d="M43.1334 44.1154L47.6055 36.4048C47.8739 35.9422 48.3683 35.6574 48.9031 35.6574H57.8792C58.414 35.6574 58.9084 35.9422 59.1767 36.4048L63.6489 44.1154C63.9188 44.5808 63.9188 45.1551 63.6489 45.6206L59.1767 53.3311C58.9084 53.7938 58.414 54.0785 57.8792 54.0785H48.9031C48.3683 54.0785 47.8739 53.7938 47.6055 53.3311L43.1334 45.6206C42.8635 45.1551 42.8635 44.5808 43.1334 44.1154Z" stroke="#FEE044" stroke-width="5"/>
<path d="M24.8156 54.9007L29.2877 47.1901C29.5561 46.7274 30.0504 46.4427 30.5853 46.4427H39.5614C40.0962 46.4427 40.5906 46.7274 40.8589 47.1901L45.3311 54.9007C45.601 55.3661 45.601 55.9404 45.3311 56.4058L40.8589 64.1164C40.5906 64.579 40.0962 64.8638 39.5614 64.8638H30.5853C30.0504 64.8638 29.5561 64.579 29.2877 64.1164L24.8156 56.4058C24.5456 55.9404 24.5456 55.3661 24.8156 54.9007Z" stroke="#FEE044" stroke-width="5"/>
<path d="M6.32657 43.9442L10.7987 36.2336C11.0671 35.771 11.5614 35.4862 12.0963 35.4862H21.0724C21.6072 35.4862 22.1016 35.771 22.3699 36.2336L26.8421 43.9442C27.112 44.4096 27.112 44.9839 26.8421 45.4494L22.3699 53.1599C22.1016 53.6226 21.6072 53.9073 21.0724 53.9073H12.0963C11.5614 53.9073 11.0671 53.6226 10.7987 53.1599L6.32657 45.4494C6.05663 44.9839 6.05663 44.4096 6.32657 43.9442Z" stroke="#FEE044" stroke-width="5"/>
<path d="M6.66886 23.572L11.141 15.8615C11.4093 15.3988 11.9037 15.1141 12.4385 15.1141H21.4147C21.9495 15.1141 22.4439 15.3988 22.7122 15.8615L27.1844 23.572C27.4543 24.0375 27.4543 24.6118 27.1844 25.0772L22.7122 32.7878C22.4439 33.2504 21.9495 33.5352 21.4147 33.5352H12.4385C11.9037 33.5352 11.4093 33.2504 11.141 32.7878L6.66886 25.0772C6.39892 24.6118 6.39892 24.0375 6.66886 23.572Z" stroke="#FEE044" stroke-width="5"/>
</svg>
