<svg width="500" height="522" viewBox="0 0 500 522" fill="none" xmlns="http://www.w3.org/2000/svg">
    <path d="M316.18 194.461H335.463L322.661 172.269L361.985 104.104H440.634L479.959 172.269L467.156 194.461H487.198L500 172.269L450.845 87.0627H352.533L303.378 172.269L316.18 194.461Z" fill="#D4B45D"/>
    <path d="M299.156 170.413L348.311 85.2065L299.156 0H200.844L151.689 85.2065L200.844 170.413H299.156ZM210.296 17.0412H288.945L328.27 85.2064L288.945 153.372H210.296L170.972 85.2064L210.296 17.0412Z" fill="#D4B45D"/>
    <path d="M32.0855 194.461L19.2831 172.269L58.6076 104.104H137.256L176.581 172.269L163.778 194.461H183.82L196.622 172.269L147.467 87.0627H49.1556L0 172.269L12.8023 194.461H32.0855Z" fill="#D4B45D"/>
    <path d="M184.473 327.429H164.432L176.581 348.488L137.256 416.654H58.6076L19.2831 348.488L31.4319 327.429H12.1488L0 348.488L49.1556 433.695H147.467L196.622 348.488L184.473 327.429Z" fill="#D4B45D"/>
    <path d="M200.844 351.587L151.689 436.793L200.844 522H299.156L348.311 436.793L299.156 351.587H200.844ZM288.945 504.959H210.296L170.972 436.793L210.296 368.628H288.945L328.27 436.793L288.945 504.959Z" fill="#D4B45D"/>
    <path d="M467.81 327.429L479.959 348.488L440.634 416.654H361.985L322.661 348.488L334.81 327.429H315.527L303.378 348.488L352.533 433.695H450.845L500 348.488L487.851 327.429H467.81Z" fill="#D4B45D"/>
    <path d="M409.427 260.448L435.155 320.497H468.933L485.947 201.393H452.251L443.622 261.444L417.894 201.393H384.116L367.103 320.497H400.713L409.427 260.448Z" fill="#D4B45D"/>
    <path d="M299.05 279.966H354.322L366.274 267.922L373.243 219.499L355.069 201.393H268.508L285.771 218.67H272.99L258.466 320.497H293.239L299.05 279.966ZM305.772 232.457H336.562L334.238 248.902H303.448L305.772 232.457Z" fill="#D4B45D"/>
    <path d="M232.905 320.497L251.661 310.033L264.606 219.499L246.432 201.393H185.017L164.353 218.67L152.402 302.391L170.494 320.497H232.905ZM197.135 232.457H227.925L219.79 289.434H189.001L197.135 232.457Z" fill="#D4B45D"/>
    <path d="M48.9096 320.497L57.2092 262.274L78.0415 315.93L99.2866 284.867L66.8367 201.393H19.2825L29.574 211.775L14.1359 320L48.9096 320.497Z" fill="#D4B45D"/>
    <path d="M141.529 320.497L158.543 201.393H118.707L90.822 242.174L104.433 277.225L115.139 261.694L106.755 320.497H141.529Z" fill="#D4B45D"/>
</svg>
